<?xml version="1.0" encoding="UTF-8" standalone="no"?>
<!DOCTYPE svg PUBLIC "-//W3C//DTD SVG 1.1//EN"
 "http://www.w3.org/Graphics/SVG/1.1/DTD/svg11.dtd">
<!-- Generated by graphviz version 2.42.4 (0)
 -->
<!-- Title: G Pages: 1 -->
<svg width="809pt" height="631pt"
 viewBox="18.00 18.00 790.58 613.00" xmlns="http://www.w3.org/2000/svg" xmlns:xlink="http://www.w3.org/1999/xlink">
<g id="graph0" class="graph" transform="scale(0.91 0.91) rotate(0) translate(23.8 670.43)">
<title>G</title>
<polygon fill="white" stroke="transparent" points="-4,4 -4,-650.62 846,-650.62 846,4 -4,4"/>
<text text-anchor="middle" x="421" y="-634.62" font-family="Arial" font-size="10.00">ManatOS &#45; Authentication and Multi&#45;Session Flow</text>
<!-- client -->
<g id="node1" class="node">
<title>client</title>
<path fill="#e8f4e5" stroke="black" d="M73,-95.31C73,-95.31 29,-95.31 29,-95.31 23,-95.31 17,-89.31 17,-83.31 17,-83.31 17,-71.31 17,-71.31 17,-65.31 23,-59.31 29,-59.31 29,-59.31 73,-59.31 73,-59.31 79,-59.31 85,-65.31 85,-71.31 85,-71.31 85,-83.31 85,-83.31 85,-89.31 79,-95.31 73,-95.31"/>
<text text-anchor="middle" x="51" y="-80.11" font-family="Arial" font-size="9.00">Client</text>
<text text-anchor="middle" x="51" y="-70.11" font-family="Arial" font-size="9.00">Postman / UI</text>
</g>
<!-- login -->
<g id="node2" class="node">
<title>login</title>
<path fill="#dcecff" stroke="black" d="M388.5,-564.31C388.5,-564.31 299.5,-564.31 299.5,-564.31 293.5,-564.31 287.5,-558.31 287.5,-552.31 287.5,-552.31 287.5,-540.31 287.5,-540.31 287.5,-534.31 293.5,-528.31 299.5,-528.31 299.5,-528.31 388.5,-528.31 388.5,-528.31 394.5,-528.31 400.5,-534.31 400.5,-540.31 400.5,-540.31 400.5,-552.31 400.5,-552.31 400.5,-558.31 394.5,-564.31 388.5,-564.31"/>
<text text-anchor="middle" x="344" y="-549.11" font-family="Arial" font-size="9.00">POST /api/v1/auth/login</text>
<text text-anchor="middle" x="344" y="-539.11" font-family="Arial" font-size="9.00">No Auth</text>
</g>
<!-- client&#45;&gt;login -->
<g id="edge1" class="edge">
<title>client&#45;&gt;login</title>
<path fill="none" stroke="black" d="M54.04,-95.57C62.18,-165.37 94.36,-414.29 145.5,-472.31 179.74,-511.16 236.43,-529.67 280.31,-538.46"/>
<polygon fill="black" stroke="black" points="279.9,-540.88 287.24,-539.79 280.83,-536.06 279.9,-540.88"/>
<text text-anchor="middle" x="180" y="-518.91" font-family="Arial" font-size="8.00">identity + password</text>
</g>
<!-- client&#45;&gt;login -->
<g id="edge6" class="edge">
<title>client&#45;&gt;login</title>
<path fill="none" stroke="black" d="M58.8,-95.41C72.79,-131.8 106.76,-215.96 145.5,-281.31 201.76,-376.21 284.92,-478.05 322.84,-522.87"/>
<polygon fill="black" stroke="black" points="321.05,-524.55 327.45,-528.3 324.79,-521.38 321.05,-524.55"/>
<text text-anchor="middle" x="180" y="-381.91" font-family="Arial" font-size="8.00">login again</text>
</g>
<!-- sessions -->
<g id="node5" class="node">
<title>sessions</title>
<path fill="#dcecff" stroke="black" d="M379.5,-430.31C379.5,-430.31 308.5,-430.31 308.5,-430.31 302.5,-430.31 296.5,-424.31 296.5,-418.31 296.5,-418.31 296.5,-406.31 296.5,-406.31 296.5,-400.31 302.5,-394.31 308.5,-394.31 308.5,-394.31 379.5,-394.31 379.5,-394.31 385.5,-394.31 391.5,-400.31 391.5,-406.31 391.5,-406.31 391.5,-418.31 391.5,-418.31 391.5,-424.31 385.5,-430.31 379.5,-430.31"/>
<text text-anchor="middle" x="344" y="-415.11" font-family="Arial" font-size="9.00">GET /auth/sessions</text>
<text text-anchor="middle" x="344" y="-405.11" font-family="Arial" font-size="9.00">Bearer token</text>
</g>
<!-- client&#45;&gt;sessions -->
<g id="edge9" class="edge">
<title>client&#45;&gt;sessions</title>
<path fill="none" stroke="black" d="M65.53,-95.39C83.36,-119 115.93,-161.44 145.5,-196.31 206.58,-268.34 283.07,-349.63 320.4,-388.77"/>
<polygon fill="black" stroke="black" points="319.01,-390.87 325.62,-394.24 322.56,-387.48 319.01,-390.87"/>
<text text-anchor="middle" x="180" y="-270.91" font-family="Arial" font-size="8.00">Bearer A</text>
</g>
<!-- logout -->
<g id="node6" class="node">
<title>logout</title>
<path fill="#dcecff" stroke="black" d="M377.5,-296.31C377.5,-296.31 310.5,-296.31 310.5,-296.31 304.5,-296.31 298.5,-290.31 298.5,-284.31 298.5,-284.31 298.5,-272.31 298.5,-272.31 298.5,-266.31 304.5,-260.31 310.5,-260.31 310.5,-260.31 377.5,-260.31 377.5,-260.31 383.5,-260.31 389.5,-266.31 389.5,-272.31 389.5,-272.31 389.5,-284.31 389.5,-284.31 389.5,-290.31 383.5,-296.31 377.5,-296.31"/>
<text text-anchor="middle" x="344" y="-281.11" font-family="Arial" font-size="9.00">POST /auth/logout</text>
<text text-anchor="middle" x="344" y="-271.11" font-family="Arial" font-size="9.00">revoke current</text>
</g>
<!-- client&#45;&gt;logout -->
<g id="edge12" class="edge">
<title>client&#45;&gt;logout</title>
<path fill="none" stroke="black" d="M78.08,-95.33C131.38,-132.14 252.66,-215.91 310.78,-256.06"/>
<polygon fill="black" stroke="black" points="309.72,-258.3 316.87,-260.27 312.51,-254.27 309.72,-258.3"/>
<text text-anchor="middle" x="180" y="-185.91" font-family="Arial" font-size="8.00">Bearer A</text>
</g>
<!-- logoutAll -->
<g id="node7" class="node">
<title>logoutAll</title>
<path fill="#dcecff" stroke="black" d="M389.5,-162.31C389.5,-162.31 298.5,-162.31 298.5,-162.31 292.5,-162.31 286.5,-156.31 286.5,-150.31 286.5,-150.31 286.5,-138.31 286.5,-138.31 286.5,-132.31 292.5,-126.31 298.5,-126.31 298.5,-126.31 389.5,-126.31 389.5,-126.31 395.5,-126.31 401.5,-132.31 401.5,-138.31 401.5,-138.31 401.5,-150.31 401.5,-150.31 401.5,-156.31 395.5,-162.31 389.5,-162.31"/>
<text text-anchor="middle" x="344" y="-147.11" font-family="Arial" font-size="9.00">POST /auth/logout&#45;all</text>
<text text-anchor="middle" x="344" y="-137.11" font-family="Arial" font-size="9.00">revoke all user sessions</text>
</g>
<!-- client&#45;&gt;logoutAll -->
<g id="edge15" class="edge">
<title>client&#45;&gt;logoutAll</title>
<path fill="none" stroke="black" d="M85.1,-84.93C132.19,-95.78 219.46,-115.87 279.33,-129.65"/>
<polygon fill="black" stroke="black" points="279.12,-132.12 286.49,-131.3 280.22,-127.34 279.12,-132.12"/>
<text text-anchor="middle" x="180" y="-114.91" font-family="Arial" font-size="8.00">Bearer B</text>
</g>
<!-- userSvc -->
<g id="node3" class="node">
<title>userSvc</title>
<path fill="#fff3d6" stroke="black" d="M784,-601.31C784,-601.31 700,-601.31 700,-601.31 694,-601.31 688,-595.31 688,-589.31 688,-589.31 688,-577.31 688,-577.31 688,-571.31 694,-565.31 700,-565.31 700,-565.31 784,-565.31 784,-565.31 790,-565.31 796,-571.31 796,-577.31 796,-577.31 796,-589.31 796,-589.31 796,-595.31 790,-601.31 784,-601.31"/>
<text text-anchor="middle" x="742" y="-586.11" font-family="Arial" font-size="9.00">SysUserService</text>
<text text-anchor="middle" x="742" y="-576.11" font-family="Arial" font-size="9.00">verifyLocalCredentials</text>
</g>
<!-- login&#45;&gt;userSvc -->
<g id="edge2" class="edge">
<title>login&#45;&gt;userSvc</title>
<path fill="none" stroke="black" d="M400.9,-551.53C474.84,-558.44 604.66,-570.57 680.73,-577.68"/>
<polygon fill="black" stroke="black" points="680.72,-580.14 687.92,-578.35 681.18,-575.26 680.72,-580.14"/>
<text text-anchor="middle" x="536" y="-569.91" font-family="Arial" font-size="8.00">verify</text>
</g>
<!-- token -->
<g id="node4" class="node">
<title>token</title>
<path fill="#f1eafb" stroke="black" d="M797,-107.31C797,-107.31 687,-107.31 687,-107.31 681,-107.31 675,-101.31 675,-95.31 675,-95.31 675,-83.31 675,-83.31 675,-77.31 681,-71.31 687,-71.31 687,-71.31 797,-71.31 797,-71.31 803,-71.31 809,-77.31 809,-83.31 809,-83.31 809,-95.31 809,-95.31 809,-101.31 803,-107.31 797,-107.31"/>
<text text-anchor="middle" x="742" y="-92.11" font-family="Arial" font-size="9.00">AccessTokenStore</text>
<text text-anchor="middle" x="742" y="-82.11" font-family="Arial" font-size="9.00">create / validate / list / revoke</text>
</g>
<!-- login&#45;&gt;token -->
<g id="edge4" class="edge">
<title>login&#45;&gt;token</title>
<path fill="none" stroke="black" d="M389.83,-528.25C443.15,-504.86 532.07,-459.59 589,-397.31 669.63,-309.1 717.18,-170.22 734.02,-114.08"/>
<polygon fill="black" stroke="black" points="736.38,-114.75 736.01,-107.34 731.68,-113.36 736.38,-114.75"/>
<text text-anchor="middle" x="536" y="-480.91" font-family="Arial" font-size="8.00">create session A</text>
</g>
<!-- login&#45;&gt;token -->
<g id="edge7" class="edge">
<title>login&#45;&gt;token</title>
<path fill="none" stroke="black" d="M357.5,-528.24C379.99,-496.6 429.9,-430.28 483,-385.31 525,-349.75 549.38,-359.5 589,-321.31 655.28,-257.42 707.34,-159.57 729.45,-114.11"/>
<polygon fill="black" stroke="black" points="731.79,-114.9 732.62,-107.54 727.37,-112.78 731.79,-114.9"/>
<text text-anchor="middle" x="536" y="-387.91" font-family="Arial" font-size="8.00">create independent session B</text>
</g>
<!-- userSvc&#45;&gt;login -->
<g id="edge3" class="edge">
<title>userSvc&#45;&gt;login</title>
<path fill="none" stroke="black" d="M687.76,-567.05C658.85,-559.06 622.3,-550.31 589,-546.31 527.87,-538.98 457.49,-539.97 408.08,-542.2"/>
<polygon fill="black" stroke="black" points="407.82,-539.76 400.95,-542.54 408.06,-544.66 407.82,-539.76"/>
<text text-anchor="middle" x="536" y="-548.91" font-family="Arial" font-size="8.00">SysUser + emailVerified</text>
</g>
<!-- token&#45;&gt;client -->
<g id="edge5" class="edge">
<title>token&#45;&gt;client</title>
<path fill="none" stroke="black" d="M674.95,-88.16C533.92,-85.7 206.94,-80.01 92.46,-78.02"/>
<polygon fill="black" stroke="black" points="92.27,-75.56 85.23,-77.89 92.19,-80.46 92.27,-75.56"/>
<text text-anchor="middle" x="344" y="-85.91" font-family="Arial" font-size="8.00">opaque Bearer token A</text>
</g>
<!-- token&#45;&gt;client -->
<g id="edge8" class="edge">
<title>token&#45;&gt;client</title>
<path fill="none" stroke="black" d="M674.7,-84C606.31,-78.8 496.53,-71.25 401.5,-68.31 350.41,-66.73 337.6,-67.33 286.5,-68.31 218.45,-69.62 139.35,-73.05 92.6,-75.28"/>
<polygon fill="black" stroke="black" points="92.26,-72.84 85.38,-75.63 92.49,-77.74 92.26,-72.84"/>
<text text-anchor="middle" x="344" y="-70.91" font-family="Arial" font-size="8.00">opaque Bearer token B</text>
</g>
<!-- token&#45;&gt;client -->
<g id="edge11" class="edge">
<title>token&#45;&gt;client</title>
<path fill="none" stroke="black" d="M674.92,-78.65C648.29,-74.64 617.24,-70.33 589,-67.31 393,-46.36 341.61,-46.44 145.5,-66.31 128.16,-68.07 109.03,-70.27 92.62,-72.24"/>
<polygon fill="black" stroke="black" points="91.95,-69.86 85.29,-73.13 92.54,-74.72 91.95,-69.86"/>
<text text-anchor="middle" x="344" y="-55.91" font-family="Arial" font-size="8.00">A current=true; B current=false</text>
</g>
<!-- token&#45;&gt;client -->
<g id="edge14" class="edge">
<title>token&#45;&gt;client</title>
<path fill="none" stroke="black" d="M677.13,-71.29C650.14,-64.32 618.24,-56.93 589,-52.31 394.3,-21.56 339.59,-20.89 145.5,-55.31 127.83,-58.45 108.49,-62.83 92.01,-66.87"/>
<polygon fill="black" stroke="black" points="91.34,-64.51 85.13,-68.57 92.52,-69.26 91.34,-64.51"/>
<text text-anchor="middle" x="344" y="-35.91" font-family="Arial" font-size="8.00">200 success + message</text>
</g>
<!-- token&#45;&gt;client -->
<g id="edge17" class="edge">
<title>token&#45;&gt;client</title>
<path fill="none" stroke="black" d="M700.91,-71.25C670.76,-58.48 628.09,-42.12 589,-33.31 396.7,10.04 335.28,14 145.5,-39.31 127.49,-44.37 108.24,-51.82 91.92,-58.78"/>
<polygon fill="black" stroke="black" points="90.57,-56.7 85.12,-61.73 92.52,-61.19 90.57,-56.7"/>
<text text-anchor="middle" x="344" y="-7.91" font-family="Arial" font-size="8.00">200 success + revokedSessions</text>
</g>
<!-- sessions&#45;&gt;token -->
<g id="edge10" class="edge">
<title>sessions&#45;&gt;token</title>
<path fill="none" stroke="black" d="M369.68,-394.18C414.23,-361.27 510.73,-289.09 589,-224.31 634.82,-186.39 686.18,-139.9 715.93,-112.55"/>
<polygon fill="black" stroke="black" points="717.74,-114.22 721.23,-107.67 714.42,-110.61 717.74,-114.22"/>
<text text-anchor="middle" x="536" y="-310.91" font-family="Arial" font-size="8.00">list sessions</text>
</g>
<!-- logout&#45;&gt;token -->
<g id="edge13" class="edge">
<title>logout&#45;&gt;token</title>
<path fill="none" stroke="black" d="M382.97,-260.19C456.59,-225.05 618.38,-147.83 696.74,-110.44"/>
<polygon fill="black" stroke="black" points="697.88,-112.6 703.14,-107.38 695.77,-108.18 697.88,-112.6"/>
<text text-anchor="middle" x="536" y="-213.91" font-family="Arial" font-size="8.00">revoke(A)</text>
</g>
<!-- logoutAll&#45;&gt;token -->
<g id="edge16" class="edge">
<title>logoutAll&#45;&gt;token</title>
<path fill="none" stroke="black" d="M401.74,-136.43C471.66,-126.72 590.63,-110.2 667.49,-99.52"/>
<polygon fill="black" stroke="black" points="668.19,-101.9 674.79,-98.51 667.52,-97.04 668.19,-101.9"/>
<text text-anchor="middle" x="536" y="-126.91" font-family="Arial" font-size="8.00">revokeAllForUser</text>
</g>
</g>
</svg>
